<?xml version="1.0" encoding="UTF-8" standalone="no"?>
<svg
   sodipodi:docname="unilu-logo.svg"
   inkscape:version="1.3.1 (1:1.3.1+202311172155+91b66b0783)"
   id="svg8"
   version="1.1"
   viewBox="0 0 23.315222 19.745661"
   height="19.745661mm"
   width="23.31522mm"
   xml:space="preserve"
   xmlns:inkscape="http://www.inkscape.org/namespaces/inkscape"
   xmlns:sodipodi="http://sodipodi.sourceforge.net/DTD/sodipodi-0.dtd"
   xmlns="http://www.w3.org/2000/svg"
   xmlns:svg="http://www.w3.org/2000/svg"
   xmlns:rdf="http://www.w3.org/1999/02/22-rdf-syntax-ns#"
   xmlns:cc="http://creativecommons.org/ns#"
   xmlns:dc="http://purl.org/dc/elements/1.1/"><sodipodi:namedview
     inkscape:snap-global="false"
     inkscape:window-maximized="1"
     inkscape:window-y="0"
     inkscape:window-x="0"
     inkscape:window-height="1016"
     inkscape:window-width="1920"
     showgrid="false"
     inkscape:current-layer="layer1"
     inkscape:document-units="mm"
     inkscape:cy="-138.3909"
     inkscape:cx="-375.77674"
     inkscape:zoom="0.49497475"
     inkscape:pageshadow="2"
     inkscape:pageopacity="0.0"
     borderopacity="1.0"
     bordercolor="#666666"
     pagecolor="#ffffff"
     id="base"
     inkscape:lockguides="true"
     inkscape:document-rotation="0"
     inkscape:pagecheckerboard="0"
     inkscape:showpageshadow="2"
     inkscape:deskcolor="#d1d1d1" /><defs
     id="defs2" /><metadata
     id="metadata5"><rdf:RDF><cc:Work
         rdf:about=""><dc:format>image/svg+xml</dc:format><dc:type
           rdf:resource="http://purl.org/dc/dcmitype/StillImage" /></cc:Work></rdf:RDF></metadata><g
     inkscape:label="Layer 1"
     inkscape:groupmode="layer"
     id="layer1"
     transform="translate(-236.02938,-572.38594)"><g
       id="g1425"
       transform="matrix(0.17624104,0,0,0.17624104,217.96447,476.71346)"><line
         fill="none"
         stroke="#676a69"
         stroke-width="0.529167"
         x1="102.50115"
         y1="610.87268"
         x2="234.79282"
         y2="610.87268"
         id="line2" /><path
         fill="#676a69"
         d="m 108.6543,632.99318 c -2.90116,0 -4.92019,-1.86425 -4.92019,-4.9702 v -7.83669 h 1.74096 v 7.83669 c 0,2.43126 1.52241,3.34751 3.17923,3.34751 1.63804,0 3.22659,-0.93212 3.22659,-3.34751 v -7.83669 h 1.70895 v 7.83669 c 0,3.00355 -2.12381,4.9702 -4.93554,4.9702 m 18.23932,-0.2077 v -12.59919 h -1.72297 v 8.90535 c 0,0.15504 0.0318,0.41486 0.0318,0.41486 0,0 -0.12065,-0.22357 -0.22331,-0.36248 l -6.52409,-8.95773 h -1.46527 v 12.59919 h 1.72535 v -9.05801 c 0,-0.1389 -0.0344,-0.41698 -0.0344,-0.41698 0,0 0.15743,0.24395 0.22357,0.34422 l 6.60851,9.13104 h 1.38086 z m 3.48641,0 h 1.72535 v -12.59919 h -1.72535 z m 14.27269,-12.59919 h -1.64068 l -3.20861,9.0969 c -0.05,0.15505 -0.10477,0.43075 -0.10477,0.43075 0,0 -0.05,-0.2757 -0.10266,-0.43075 l -3.19484,-9.0969 h -1.6727 l 4.43706,12.59919 h 1.06865 z m 9.98987,12.59919 v -1.62242 h -5.64224 v -3.70972 h 5.19324 v -1.62243 h -5.19324 v -4.02219 h 5.31654 v -1.62243 h -7.04162 v 12.59919 z m 12.09834,0 -4.64185,-5.27976 c 1.87986,0 3.58881,-1.58855 3.58881,-3.60971 0,-2.03305 -1.5539,-3.70972 -3.90102,-3.70972 h -4.07009 v 12.59919 h 1.72509 v -5.88592 l 5.09084,5.88592 z m -5.26415,-10.97676 c 1.64068,0 2.41802,1.15781 2.41802,2.02353 0,1.34435 -0.89826,2.31061 -2.45215,2.31061 h -2.00105 v -4.33441 h 2.03518 m 10.83812,11.18473 c 2.10318,0 3.86477,-1.27635 3.86477,-3.53668 0,-2.10794 -1.51765,-3.02207 -2.95116,-3.73063 -1.55178,-0.77496 -2.75749,-1.23745 -2.75749,-2.60482 0,-0.948 0.82497,-1.44727 1.80711,-1.44727 1.05516,0 1.71159,0.22357 2.48867,0.79322 l 0.92974,-1.41737 c -0.98239,-0.68845 -2.13757,-1.06866 -3.40016,-1.06866 -2.25822,0 -3.63934,1.37875 -3.63934,3.24512 0,2.39501 1.82986,3.19034 3.62109,4.10845 1.12606,0.56991 2.10793,1.15305 2.10793,2.22409 0,1.19194 -0.88159,1.76159 -2.15556,1.76159 -0.86571,0 -1.95051,-0.33046 -2.62519,-0.93424 l -0.98214,1.33059 c 1.15544,0.95065 2.41803,1.27661 3.69173,1.27661 m 6.6974,-0.2077 h 1.72297 v -12.59919 h -1.72297 z m 11.54219,-10.97676 v -1.62243 h -6.9686 v 1.62243 h 2.57069 v 10.97676 h 1.72508 v -10.97676 z m 10.2182,10.97676 v -1.62242 h -5.6425 v -3.70972 h 5.19351 v -1.62243 h -5.19351 v -4.02219 h 5.31442 v -1.62243 h -7.04136 v 12.59919 z m -1.69095,-16.13587 h -1.65682 l -1.60655,2.53841 h 1.6592 z m 14.7873,16.13587 c 4.318,0 6.88631,-2.82786 6.88631,-6.3328 0,-3.43614 -2.43126,-6.26665 -6.72941,-6.26665 h -3.21072 v 12.59919 h 3.05382 m 0.12065,-11.04503 c 3.02181,0 4.96993,2.15582 4.96993,4.72863 0,2.34712 -1.57003,4.76488 -5.2959,4.76488 h -1.12342 v -9.49351 h 1.44939 m 14.56637,11.25299 c 2.81199,0 4.93818,-1.96691 4.93818,-4.9702 v -7.83669 h -1.71159 v 7.83669 c 0,2.41539 -1.58591,3.34751 -3.22659,3.34751 -1.65682,0 -3.17685,-0.91625 -3.17685,-3.34751 v -7.83669 h -1.73858 v 7.83669 c 0,3.10595 2.01666,4.9702 4.91543,4.9702 M 110.3016,654.68293 v -1.62269 h -4.78102 v -10.97703 h -1.72509 v 12.59972 z m 8.18091,0.20505 c 2.80961,0 4.93343,-1.96691 4.93343,-4.96808 v -7.83669 h -1.70869 v 7.83669 c 0,2.41327 -1.58617,3.34566 -3.22474,3.34566 -1.65893,0 -3.17923,-0.91387 -3.17923,-3.34566 v -7.83669 h -1.74096 v 7.83669 c 2.7e-4,3.10621 2.0193,4.96808 4.92019,4.96808 m 19.08255,-0.20505 -4.3823,-6.73179 3.84916,-5.86793 h -1.9849 l -2.43364,3.69173 c -0.22331,0.33284 -0.41248,0.69268 -0.41248,0.69268 0,0 -0.20744,-0.35984 -0.399,-0.65405 l -2.41538,-3.73063 h -2.12196 l 3.86477,5.95472 -4.36615,6.64501 h 2.00289 l 2.794,-4.26376 c 0.24157,-0.3646 0.56965,-0.91361 0.56965,-0.91361 0,0 0.32809,0.56938 0.53525,0.87947 l 2.81226,4.2979 h 2.08783 z m 10.76986,0 v -1.62269 h -5.6425 v -3.7121 h 5.1935 v -1.62031 h -5.1935 v -4.02193 h 5.31654 v -1.62269 h -7.04348 v 12.59972 z m 16.7222,0 v -12.59972 h -1.53617 l -4.60772,6.16188 -4.74451,-6.16188 h -1.46764 v 12.59972 h 1.7272 v -9.1313 c 0,-0.22595 -0.0365,-0.46514 -0.0365,-0.46514 0,0 0.10266,0.18918 0.17304,0.27596 l 3.9878,5.19563 h 0.68845 l 3.95367,-5.33453 c 0.0706,-0.0868 0.17303,-0.29395 0.17303,-0.29395 0,0 -0.0365,0.25743 -0.0365,0.48524 v 9.26809 z m 8.559,0 c 2.78025,0 3.88541,-1.84811 3.88541,-3.41842 0,-1.55389 -1.14168,-2.70933 -2.12381,-3.00116 0.81359,-0.51965 1.44939,-1.45389 1.44939,-2.9009 0,-1.96691 -1.51765,-3.27951 -3.65972,-3.27951 h -3.32978 v 12.59973 h 3.77851 m -0.74083,-10.97677 c 1.41526,0 2.15821,0.6723 2.15821,1.79784 0,1.04854 -0.43313,2.18784 -2.31299,2.18784 h -1.15544 v -3.98542 h 1.31022 m 0.72496,5.60758 c 1.27582,0 2.10555,0.72496 2.10555,1.81187 0,1.17581 -0.72469,1.9349 -2.27859,1.9349 h -1.86187 v -3.7465 h 2.03491 m 13.26938,5.57397 c 3.55706,0 6.43996,-2.84639 6.43996,-6.5061 0,-3.6576 -2.62308,-6.50611 -6.52409,-6.50611 -3.64173,0 -6.38546,2.79612 -6.38546,6.47198 0,3.79888 2.86465,6.54023 6.46959,6.54023 m -0.0661,-11.31914 c 2.77548,0 4.71037,2.01454 4.71037,4.74478 0,3.01942 -2.17408,4.88579 -4.64423,4.88579 -2.48152,0 -4.67386,-2.05555 -4.67386,-4.8514 0,-2.76463 1.87986,-4.77917 4.60772,-4.77917 m 14.82139,11.31914 c 2.81225,0 4.93818,-1.96691 4.93818,-4.96808 v -7.83669 h -1.71133 v 7.83669 c 0,2.41327 -1.58617,3.34566 -3.22685,3.34566 -1.65682,0 -3.17659,-0.91387 -3.17659,-3.34566 v -7.83669 h -1.73884 v 7.83669 c 0,3.10621 2.01453,4.96808 4.91543,4.96808 m 17.87948,-0.20505 -4.64185,-5.28241 c 1.88225,0 3.58907,-1.58855 3.58907,-3.60494 0,-2.03491 -1.55416,-3.71237 -3.90154,-3.71237 h -4.07221 v 12.59972 h 1.72747 v -5.8838 l 5.09058,5.8838 z m -5.26177,-10.97703 c 1.63857,0 2.41538,1.15755 2.41538,2.01903 0,1.34673 -0.89985,2.31299 -2.44951,2.31299 h -2.0029 v -4.33202 h 2.03703 m 13.70013,11.18208 c 3.03768,0 5.76527,-2.43152 5.76527,-5.84967 h -5.79967 v 1.62242 h 3.79677 c -0.44662,1.51765 -1.896,2.53868 -3.70972,2.53868 -2.55455,0 -4.64212,-2.24446 -4.64212,-4.80113 0,-2.91491 2.03491,-4.82917 4.57386,-4.82917 1.46499,0 2.53841,0.39687 3.62294,1.2946 l 1.05277,-1.27846 c -1.20994,-1.05278 -2.60694,-1.70895 -4.64185,-1.70895 -3.47054,0 -6.40371,2.60456 -6.40371,6.50611 2.7e-4,3.90048 3.19537,6.50557 6.38546,6.50557"
         id="path4"
         style="stroke-width:0.264583" /><path
         fill="#e31b1d"
         d="m 165.55824,557.44379 c 1.85737,0 3.46604,-1.05277 4.26799,-2.67335 h 0.54716 v 41.99388 c 0,2.65483 -2.15582,4.81303 -4.81515,4.81303 -2.65721,0 -4.81277,-2.1582 -4.81277,-4.81303 v -41.99361 h 0.54901 c 0.8046,1.62031 2.41115,2.67308 4.26376,2.67308 m -4.01743,-9.69407 c 0,2.22409 1.80022,4.02908 4.02669,4.02908 2.22409,0 4.02907,-1.80472 4.02907,-4.02908 0,-2.22408 -1.80472,-4.02193 -4.02907,-4.02193 -2.22673,-2.6e-4 -4.02669,1.79785 -4.02669,4.02193 m 0,0 c 0,2.22409 1.80022,4.02908 4.02669,4.02908 2.22409,0 4.02907,-1.80472 4.02907,-4.02908 0,-2.22408 -1.80472,-4.02193 -4.02907,-4.02193 -2.22673,-2.6e-4 -4.02669,1.79785 -4.02669,4.02193 m -48.16052,53.83001 V 559.5811 c 0,-2.65933 -2.15794,-4.81251 -4.81489,-4.81251 -2.65959,0 -4.81991,2.15344 -4.81991,4.81251 v 37.18322 c 0,2.66197 2.16032,4.81515 4.81991,4.81515 v 0 h 4.81489 z m 2.60482,0 h 2.01216 c 2.65932,0 4.81727,-2.56355 4.81727,-5.22076 h -0.005 c 0,2.57757 0.52387,5.22076 2.80087,5.22076 h -0.007 V 559.5811 c 0,-2.65933 -2.15556,-4.81251 -4.81277,-4.81251 -2.65721,0 -4.81065,2.15344 -4.81065,4.81251 v 41.99863 h 0.002 m 28.51693,-46.81378 v 42.00101 c 0,2.65933 2.16059,4.81251 4.81754,4.81251 2.65244,0 4.81065,-2.15345 4.81065,-4.81251 v -37.18348 c 0,-2.66171 -2.15794,-4.81753 -4.81065,-4.81753 v 0 z m -4.62121,0 c -2.65456,0 -4.81065,2.56592 -4.81065,5.22313 h 0.005 c 0,-2.5773 -0.52864,-5.22049 -2.803,-5.22313 h 0.005 v 42.00101 c 0,2.65933 2.15556,4.81251 4.81726,4.81251 2.65483,0 4.81066,-2.15345 4.81066,-4.81251 v -42.00101 h -0.007 z"
         id="path6"
         style="stroke-width:0.264583" /><path
         fill="#00a4dd"
         d="m 200.22342,545.52114 c 1.85261,0 3.46392,-1.05066 4.26852,-2.67097 h 0.53737 v 53.91441 c 0,2.65483 -2.15344,4.81304 -4.80801,4.81304 -2.67996,0 -4.82891,-2.15821 -4.82891,-4.81304 v -53.91441 h 0.54478 c 0.80222,1.62031 2.43125,2.67097 4.28625,2.67097 m 21.09047,56.05859 V 559.5811 c 0,-2.65933 -2.16033,-4.81515 -4.81754,-4.81515 -2.65456,0 -4.81065,2.15582 -4.81065,4.81515 v 37.18322 c 0,2.65959 2.15582,4.81515 4.81065,4.81515 v 0 h 4.81754 z m 4.61909,0 c 2.65483,0 4.81277,-2.56355 4.81277,-5.22287 h -0.005 c 0,2.57704 0.52864,5.22076 2.80512,5.22287 h -0.007 V 559.5811 c 0,-2.65933 -2.15582,-4.81515 -4.81515,-4.81515 -2.65721,0 -4.81251,2.15582 -4.81251,4.81515 v 41.99863 h 0.009 z m -47.84354,-4.82441 c 0,2.66383 2.16032,4.82415 4.82891,4.82415 2.6617,0 4.82414,-2.16032 4.82414,-4.82415 0,-2.66383 -2.1627,-4.82626 -4.82414,-4.82626 -2.66859,0 -4.82891,2.16243 -4.82891,4.82626"
         id="path8"
         style="stroke-width:0.264583" /></g></g></svg>
