<?xml version="1.0" encoding="UTF-8" standalone="no"?>
<!-- Created with Inkscape (http://www.inkscape.org/) -->

<svg
   version="1.1"
   id="svg1"
   width="809.29333"
   height="748.40002"
   viewBox="0 0 809.29333 748.40002"
   sodipodi:docname="upenn-vertical-rgb.svg"
   inkscape:version="1.3.1 (1:1.3.1+202311172155+91b66b0783)"
   xmlns:inkscape="http://www.inkscape.org/namespaces/inkscape"
   xmlns:sodipodi="http://sodipodi.sourceforge.net/DTD/sodipodi-0.dtd"
   xmlns="http://www.w3.org/2000/svg"
   xmlns:svg="http://www.w3.org/2000/svg">
  <defs
     id="defs1" />
  <sodipodi:namedview
     id="namedview1"
     pagecolor="#ffffff"
     bordercolor="#666666"
     borderopacity="1.0"
     inkscape:showpageshadow="2"
     inkscape:pageopacity="0.0"
     inkscape:pagecheckerboard="0"
     inkscape:deskcolor="#d1d1d1"
     inkscape:zoom="0.38444278"
     inkscape:cx="364.16342"
     inkscape:cy="-68.930934"
     inkscape:window-width="1920"
     inkscape:window-height="1016"
     inkscape:window-x="0"
     inkscape:window-y="0"
     inkscape:window-maximized="1"
     inkscape:current-layer="g1">
    <inkscape:page
       x="0"
       y="0"
       inkscape:label="1"
       id="page1"
       width="809.29333"
       height="748.40002"
       margin="0"
       bleed="0" />
  </sodipodi:namedview>
  <g
     id="g1"
     inkscape:groupmode="layer"
     inkscape:label="1">
    <g
       id="group-R5">
      <path
         id="path2"
         d="M 4282.2,5613 H 1787.38 c 0,0 0.01,-1237.08 0.01,-1243.62 -1.66,-541.38 298.35,-933.47 550.31,-1167.1 277.11,-256.9 582.61,-405.04 684.69,-427.28 l 12.39,-2.67 12.5,2.68 c 101.98,22.23 407.47,170.37 684.57,427.27 251.99,233.63 551.98,625.72 550.33,1167.07 -0.03,15.49 0.02,1243.65 0.02,1243.65 v 0 0"
         style="fill:#ffffff;fill-opacity:1;fill-rule:nonzero;stroke:none"
         transform="matrix(0.13333333,0,0,-0.13333333,0,748.4)" />
      <path
         id="path3"
         d="m 4128.66,5092.31 v 0 c 3.65,-2.84 7.42,-5.8 10.08,-9.74 2.84,-4.21 4.28,-9.13 4.16,-14.45 0.12,-5.11 -1.32,-10.03 -4.16,-14.24 -2.66,-3.95 -6.43,-6.89 -10.08,-9.74 -5.67,-4.42 -11.01,-8.6 -11.01,-15.85 v -44.3 l -261.58,0.01 -261.57,-0.01 v 44.3 c 0,7.25 -5.35,11.43 -10.99,15.85 -3.67,2.85 -7.44,5.79 -10.1,9.74 -2.85,4.21 -4.29,9.13 -4.17,14.46 -0.12,5.1 1.32,10.02 4.17,14.23 2.66,3.94 6.44,6.9 10.1,9.74 5.64,4.42 10.99,8.59 10.99,15.85 v 144.61 c 0,7.25 -5.35,11.44 -10.99,15.86 -3.67,2.85 -7.44,5.8 -10.1,9.75 -2.85,4.19 -4.29,9.12 -4.17,14.44 -0.12,5.11 1.32,10.02 4.17,14.23 2.66,3.97 6.61,7.04 10.1,9.76 5.64,4.4 10.99,8.58 10.99,15.84 v 45.63 h 6.65 c 30.57,0.02 57.42,0.7 76.1,8.69 7.63,3.24 14.66,7.68 22.16,12.39 16,10.08 34.19,21.49 61.36,21.49 21.79,0 42.05,-8.15 59.99,-15.38 12.66,-5.09 24.62,-9.9 33.55,-9.9 h 3.54 c 8.91,0 20.87,4.81 33.62,9.93 17.86,7.2 38.12,15.35 59.91,15.35 27.19,0 45.35,-11.41 61.42,-21.52 7.44,-4.68 14.47,-9.12 22.1,-12.36 18.68,-7.99 45.52,-8.67 76.11,-8.69 h 6.64 v -45.63 c 0,-7.26 5.34,-11.44 11.01,-15.85 3.46,-2.71 7.42,-5.78 10.08,-9.74 2.84,-4.22 4.28,-9.13 4.16,-14.45 0.12,-5.11 -1.32,-10.04 -4.16,-14.23 -2.66,-3.95 -6.43,-6.9 -10.08,-9.75 -5.67,-4.42 -11.01,-8.61 -11.01,-15.86 v -144.61 c 0,-7.26 5.34,-11.43 11.01,-15.85 v 0 z m -641.42,-75.59 c -40.45,-64.7 -118.51,-80.52 -121.74,-81.14 -15.41,-2.72 -31.2,-4.1 -46.98,-4.1 h -0.02 c -81.53,0 -156.9,35.47 -233.33,75 -8.61,4.45 -18.16,9.68 -28.46,15.31 -48.79,26.71 -116.89,63.98 -174.53,63.98 -16.76,0 -32.64,-3.16 -46.91,-10.64 l -2.36,-1.25 -0.14,-2.67 c -0.39,-7.51 -1.83,-14.66 -4.28,-21.23 -9.17,-24.59 -39.22,-50.74 -53.86,-61.15 -33.54,-24.12 -74.76,-48.79 -126.15,-48.79 -7.69,0 -14.82,1.11 -21.18,3.27 -9.22,3.14 -17.16,8.73 -22.93,16.17 -2.81,3.62 -5.18,7.73 -7.05,12.22 -1.48,3.56 -2.39,7.08 -2.96,11.42 l -0.4,3.02 -2.91,0.87 c -19.91,5.97 -31.79,18.99 -31.79,34.86 0,11.92 8.81,22.35 17.35,32.46 13.28,15.72 24.75,29.3 6.03,47.05 -1.76,1.65 -3.79,3.16 -5.78,4.64 -2.72,2.02 -5.29,3.92 -7.62,6.42 -16.41,17.61 -6.72,54.2 -0.93,76.06 l 0.64,2.36 c 6.3,23.94 15.96,48.7 29.53,75.69 18.37,36.55 40.59,77.73 71.72,103.77 0.61,0.52 1.41,0.75 2.23,0.63 0.79,-0.13 1.5,-0.57 1.94,-1.25 0.64,-0.96 4.03,-6.18 8.9,-14.32 l 5.25,-8.75 3.24,9.68 c 8.64,25.85 22.93,42.59 42.44,49.74 20.9,7.68 40.37,-3.09 50.12,-10.17 l 4.11,-3 2.65,4.33 c 6.24,10.15 17.73,22.44 37.03,23.32 21.15,0.95 38.43,-13.5 46.8,-22.22 l 3.02,-3.16 3.38,2.81 c 9.46,7.91 34.14,25.93 58.94,22.58 23.46,-3.15 32.41,-23.61 35.17,-32.25 l 1.66,-5.21 4.9,2.42 c 11.04,5.47 32.56,12.7 52.78,-0.11 12.99,-8.23 14.53,-22.28 13.54,-32.62 l -0.57,-6.1 6.03,1.01 c 15.2,2.57 43.17,4.32 59.78,-12.64 13.06,-13.34 13.91,-30.61 12.34,-42.75 l -0.78,-5.99 5.99,0.72 c 13.34,1.56 31.26,0.29 40.92,-14.68 6.53,-10.15 3.98,-24.49 1.88,-32.13 l -1.29,-4.67 4.7,-1.15 c 7.76,-1.89 21.38,-6.72 25.44,-17.86 3.01,-8.27 2.04,-22.1 -2.66,-37.93 l -1.21,-4.06 3.94,-1.61 c 6.72,-2.77 19.03,-9.36 25.69,-22.5 6.5,-12.88 6.21,-28.87 -0.89,-47.53 l -1.14,-3.04 2.42,-2.14 c 17.38,-15.43 34.88,-29.58 52.05,-42.06 34.84,-25.33 89.16,-38.77 126.07,-8.44 13.93,11.46 20.13,32.39 15.42,52.07 -4.19,17.43 -15.71,29.42 -31.57,32.94 -27.86,6.13 -49.97,-20.34 -67.93,-47.07 -0.57,-0.88 -1.58,-1.34 -2.61,-1.24 -1.05,0.1 -1.95,0.75 -2.35,1.72 -16.51,39.49 -17.31,72.27 -2.4,97.41 12.67,21.34 37.05,36.29 66.91,41.04 l 4.01,0.64 -0.05,4.05 c -0.54,46.77 10.67,80.87 33.29,101.33 13.74,12.46 39,26.09 81.36,20.37 0.86,-0.11 1.65,-0.64 2.09,-1.39 0.42,-0.76 0.48,-1.69 0.15,-2.5 -31.11,-74.95 -23.41,-103 -6.51,-164.55 1.47,-5.42 3.03,-11.08 4.61,-17.04 v 0 c 15.63,-58.32 10.86,-108.21 -14.19,-148.28 v 0 z m -1001.06,75.59 h 0.01 c 3.65,-2.84 7.43,-5.8 10.1,-9.74 2.82,-4.21 4.27,-9.13 4.15,-14.45 0.12,-5.11 -1.33,-10.03 -4.16,-14.24 -2.66,-3.95 -6.43,-6.89 -10.09,-9.74 -5.66,-4.42 -11,-8.6 -11,-15.85 v -44.3 l -261.58,0.01 -261.58,-0.01 v 44.3 c 0,7.25 -5.34,11.43 -11,15.85 -3.65,2.85 -7.43,5.79 -10.08,9.74 -2.84,4.21 -4.28,9.13 -4.17,14.46 -0.11,5.1 1.33,10.02 4.17,14.23 2.65,3.94 6.43,6.9 10.08,9.74 5.66,4.42 11,8.59 11,15.85 v 144.61 c 0,7.25 -5.34,11.44 -11,15.86 -3.65,2.85 -7.43,5.8 -10.08,9.75 -2.84,4.19 -4.28,9.12 -4.17,14.44 -0.11,5.11 1.33,10.02 4.17,14.23 2.66,3.97 6.6,7.04 10.08,9.76 5.66,4.4 11,8.58 11,15.84 v 45.63 h 6.66 c 30.57,0.02 57.4,0.7 76.09,8.69 7.64,3.24 14.67,7.68 22.16,12.39 16.02,10.08 34.19,21.49 61.36,21.49 21.8,0 42.05,-8.15 60,-15.38 12.66,-5.09 24.62,-9.9 33.55,-9.9 h 3.52 c 8.93,0 20.89,4.81 33.62,9.93 17.88,7.2 38.13,15.35 59.93,15.35 27.18,0 45.34,-11.41 61.42,-21.52 7.44,-4.68 14.47,-9.12 22.1,-12.36 18.69,-7.99 45.52,-8.67 76.1,-8.69 h 6.65 v -45.63 c 0,-7.26 5.34,-11.44 11,-15.85 3.48,-2.71 7.42,-5.78 10.09,-9.74 2.83,-4.22 4.28,-9.13 4.16,-14.45 0.12,-5.11 -1.33,-10.04 -4.16,-14.23 -2.66,-3.95 -6.43,-6.9 -10.09,-9.75 -5.66,-4.42 -11,-8.61 -11,-15.86 v -144.61 c 0,-7.26 5.34,-11.43 10.99,-15.85 v 0 z m -635.72,455 c 0,0 3.3,-722.72 -0.14,-719.25 l 2369.04,-0.02 c 0,338.61 0,719.27 0,719.27 h -2368.9 v 0 0"
         style="fill:#990000;fill-opacity:1;fill-rule:nonzero;stroke:none"
         transform="matrix(0.13333333,0,0,-0.13333333,0,748.4)" />
      <path
         id="path4"
         d="m 2666.56,5123.45 c 8.29,0 16.19,-2.15 23.99,-8.59 2.58,-2.13 4.95,-4.29 7.06,-6.28 5.42,-5.18 5.09,-13.93 -0.74,-18.66 -5.88,-4.78 -12.56,-9.53 -16.74,-12.4 -9.66,-6.61 -26.18,-18.71 -37.66,-9.2 -5.8,4.82 5.69,12.65 0.66,32.56 -3.94,15.6 11.46,22.57 23.43,22.57 v 0 0"
         style="fill:#011f5b;fill-opacity:1;fill-rule:nonzero;stroke:none"
         transform="matrix(0.13333333,0,0,-0.13333333,0,748.4)" />
      <path
         id="path5"
         d="m 2670.38,5356.61 c -26.34,-24.94 -46.07,-61.73 -62.65,-94.72 -13.23,-26.33 -22.65,-50.43 -28.78,-73.66 l -0.62,-2.39 c -4.55,-17.17 -14.02,-52.92 -1.51,-66.35 1.69,-1.8 3.89,-3.44 6.23,-5.17 2.23,-1.65 4.52,-3.34 6.71,-5.43 25.83,-24.48 7.87,-45.73 -5.24,-61.25 -7.67,-9.07 -14.9,-17.64 -14.9,-25.78 0,-18.16 21.98,-24.54 28.71,-26.06 3.23,-0.73 5.61,-3.48 5.85,-6.79 0.39,-5.26 0.96,-9.13 2.71,-13.34 1.51,-3.64 3.41,-6.96 5.66,-9.85 4.52,-5.82 10.79,-10.22 18.1,-12.7 5.28,-1.81 11.28,-2.73 17.83,-2.73 48.46,0 87.92,23.71 120.14,46.89 19.25,13.68 43.36,38.06 50.16,56.33 1.84,4.9 2.98,10.03 3.46,15.54 l -33.89,5.76 c -0.3,0.05 -0.6,0.13 -0.9,0.22 -3.54,1.06 -5.97,3.72 -6.48,7.09 -1.05,6.78 4.98,10.9 16.99,19.08 3.54,2.41 7.2,4.91 10.67,7.47 17.78,13.21 32.25,23.64 40.37,29.44 -9.4,10.49 -17.35,22.58 -23.98,32.63 -5.13,7.79 -9.57,14.53 -13.34,18.67 -16.81,18.28 -46.45,28.96 -70.51,13.99 -9.72,-6.04 -18.21,-13.56 -27.21,-21.51 -7.27,-6.44 -14.79,-13.08 -23.03,-18.9 -3.21,-2.28 -7.64,-1.69 -10.14,1.35 -2.51,3.03 -2.26,7.47 0.58,10.21 1.07,1.05 2.36,2.26 3.8,3.61 10.98,10.31 36.66,34.47 36.66,51.59 0,39.66 -37.99,104.89 -51.45,126.76 v 0 z m 212.43,-260.16 c 59.09,0 126.24,-36.76 178.88,-65.57 10.12,-5.55 19.68,-10.78 28.24,-15.2 89.85,-46.48 178.38,-86.77 273.64,-69.93 0.64,0.13 76.97,15.69 114.96,76.57 23.39,37.52 27.75,84.62 12.92,140 -1.62,5.97 -3.16,11.63 -4.65,17.06 -15.79,57.49 -24.77,90.2 3.18,161.83 -32.56,2.08 -52.24,-8.76 -63.3,-18.77 -21.34,-19.32 -31.35,-52.97 -29.74,-100.04 0.14,-3.95 -2.8,-7.33 -6.75,-7.74 -29.24,-3.03 -53.81,-16.83 -65.71,-36.89 -11.54,-19.45 -12.17,-44.63 -1.92,-75.02 14.51,19.81 39.07,46.53 70.54,39.59 19.6,-4.33 34.33,-19.52 39.39,-40.64 5.62,-23.45 -1.96,-48.56 -18.91,-62.48 -41.17,-33.83 -100.76,-19.54 -138.73,8.07 -44.64,32.46 -89.03,73.77 -135.66,126.3 -8.1,9.14 -16.21,18.52 -24.03,27.59 -29.37,34.03 -59.74,69.21 -95.97,97.16 -56.67,43.73 -123.66,50.89 -169.92,49.22 -31.49,-1.16 -94.72,-10.01 -137.09,-35.72 12.97,-27 24.7,-58.04 24.7,-81.99 0,-4.23 -0.86,-8.52 -2.36,-12.78 30.76,18.14 67.51,5.14 88.26,-17.39 4.59,-5.05 9.32,-12.23 14.81,-20.55 8.03,-12.2 17.15,-26.04 28.1,-36.58 1.61,-1.55 2.44,-3.76 2.27,-5.99 -0.16,-2.24 -1.33,-4.29 -3.16,-5.58 -0.19,-0.14 -19.68,-13.87 -47.2,-34.3 -3.72,-2.74 -7.67,-5.43 -11.17,-7.82 -0.66,-0.45 -1.34,-0.91 -2.06,-1.41 l 24.28,-4.11 c 16.68,9.24 35.01,13.11 54.16,13.11 v 0 z m 435.71,-169.67 c -81.65,-0.01 -158.16,35.53 -235.51,75.52 -8.71,4.52 -18.35,9.79 -28.54,15.37 -62.35,34.12 -155.94,85.35 -217.01,53.3 -0.42,-8.01 -1.95,-15.6 -4.57,-22.63 -9.58,-25.65 -40.5,-52.64 -55.52,-63.32 -34.12,-24.55 -76.16,-49.67 -128.89,-49.67 -8.21,0 -15.84,1.19 -22.69,3.51 -10.09,3.44 -18.78,9.57 -25.13,17.74 -3.06,3.95 -5.65,8.42 -7.67,13.29 -1.79,4.29 -2.72,8.34 -3.29,12.62 -21.82,6.54 -35.14,21.28 -35.14,39.35 0,13.65 9.38,24.76 18.46,35.5 14.79,17.5 21.23,26.54 6.39,40.6 -1.54,1.47 -3.38,2.83 -5.32,4.27 -2.78,2.05 -5.65,4.18 -8.28,7.01 -18.19,19.49 -8.08,57.65 -2.03,80.46 l 0.63,2.35 c 6.38,24.27 16.15,49.33 29.88,76.6 18.57,36.97 41.07,78.65 72.9,105.27 1.64,1.37 3.8,1.99 5.92,1.67 2.13,-0.32 4.01,-1.53 5.19,-3.32 1.12,-1.7 13.83,-21.23 27.14,-46.92 55.35,33.11 134.2,36.92 143.28,37.24 48.73,1.82 119.44,-5.85 179.67,-52.34 37.43,-28.87 68.3,-64.64 98.17,-99.24 7.79,-9.03 15.85,-18.37 23.88,-27.42 45.92,-51.72 89.49,-92.31 133.26,-124.13 33.42,-24.3 85.35,-37.37 120.32,-8.62 12.58,10.35 18.16,29.37 13.83,47.35 -3.74,15.62 -13.94,26.35 -28,29.45 -25.1,5.54 -45.95,-19.69 -63.02,-45.1 -1.53,-2.29 -4.23,-3.56 -6.97,-3.29 -2.77,0.26 -5.14,2.02 -6.21,4.58 -17.12,40.94 -17.84,75.12 -2.11,101.62 13.34,22.49 39.26,38.36 70.2,43.28 -0.55,48.19 11.16,83.44 34.84,104.87 14.49,13.11 40.99,27.49 85.13,21.54 2.31,-0.31 4.37,-1.68 5.53,-3.71 1.17,-2.02 1.33,-4.48 0.42,-6.64 -30.5,-73.46 -22.91,-101.04 -6.34,-161.44 1.5,-5.45 3.05,-11.14 4.66,-17.14 15.98,-59.62 11.01,-110.76 -14.77,-151.98 -41.55,-66.44 -121.5,-82.62 -124.9,-83.27 -16.14,-2.86 -32.07,-4.18 -47.79,-4.18 v 0 0"
         style="fill:#011f5b;fill-opacity:1;fill-rule:nonzero;stroke:none"
         transform="matrix(0.13333333,0,0,-0.13333333,0,748.4)" />
      <path
         id="path6"
         d="m 2619.52,4978.77 c -7.13,0 -14.36,0.44 -21.7,1.3 -4.13,0.5 -7.08,4.24 -6.59,8.37 0.49,4.13 4.22,7.08 8.36,6.58 34.28,-4.05 84.3,0.54 127.93,45.43 2.9,2.97 7.67,3.04 10.64,0.15 2.99,-2.9 3.05,-7.67 0.16,-10.65 -32.77,-33.71 -73.51,-51.18 -118.8,-51.18 v 0 0"
         style="fill:#011f5b;fill-opacity:1;fill-rule:nonzero;stroke:none"
         transform="matrix(0.13333333,0,0,-0.13333333,0,748.4)" />
      <path
         id="path7"
         d="m 3223.42,5091.72 c -0.94,0 -1.89,0.19 -2.8,0.59 -3.57,1.55 -5.2,5.69 -3.65,9.26 7.86,18.09 8.94,33.07 3.21,44.5 -7.74,15.45 -25.86,19.87 -26.05,19.92 -1.95,0.46 -3.64,1.74 -4.59,3.51 -0.94,1.79 -1.11,3.89 -0.41,5.77 2.61,7.08 8.57,27.71 4.8,38.05 -3.22,8.88 -19.91,12.58 -25.51,13.18 -2.21,0.22 -4.19,1.5 -5.31,3.41 -1.13,1.92 -1.3,4.25 -0.44,6.3 2.34,5.62 7.17,22.17 1.44,31.06 -11.12,17.25 -40.33,8.89 -40.62,8.8 -2.52,-0.74 -5.23,-0.03 -7.05,1.86 -1.82,1.87 -2.45,4.62 -1.61,7.11 0.08,0.25 8.44,26.65 -7.98,43.44 -19.22,19.62 -60.38,8.08 -60.79,7.96 -2.51,-0.72 -5.21,0 -7.01,1.88 -1.81,1.87 -2.45,4.59 -1.63,7.05 0.28,0.92 7.05,22.77 -7.67,32.11 -23.41,14.82 -50.21,-4.16 -50.49,-4.34 -2.02,-1.47 -4.67,-1.75 -6.94,-0.75 -2.29,1.01 -3.86,3.15 -4.15,5.62 -0.15,1.21 -3.97,29.86 -29.17,33.24 -27.23,3.64 -56.09,-24.38 -56.37,-24.66 -1.44,-1.42 -3.42,-2.16 -5.44,-2.02 -2.02,0.15 -3.87,1.16 -5.1,2.76 -0.18,0.23 -19.4,25.06 -43.57,23.83 -23.35,-1.06 -32.49,-24.7 -32.58,-24.93 -0.84,-2.23 -2.74,-3.89 -5.07,-4.39 -2.32,-0.52 -4.75,0.18 -6.45,1.85 -0.21,0.21 -23.28,22.27 -46.99,13.57 -29.82,-10.94 -38.26,-47.4 -41.04,-59.38 l -0.1,-0.42 c -0.88,-3.78 -4.65,-6.14 -8.44,-5.26 -3.78,0.87 -6.14,4.66 -5.26,8.44 l 0.09,0.41 c 3.2,13.82 12.94,55.86 49.9,69.41 22.91,8.41 43.91,-3.08 54.51,-10.8 5.98,9.77 18.67,24.55 40.8,25.55 23.28,1.1 41.91,-14.8 50.4,-23.64 10.92,9.12 36.32,27.18 62.58,23.63 22.96,-3.09 34.45,-21.15 39.03,-35.49 12.26,6.07 35.35,13.61 57.38,-0.36 15.26,-9.66 16.75,-26.05 15.7,-37.04 15.98,2.7 45.79,4.52 63.92,-13.99 14.75,-15.07 15.2,-34.59 13.64,-46.64 12.96,1.52 34.06,0.8 45.4,-16.79 7.35,-11.43 5.04,-26.62 2.48,-35.93 9.54,-2.32 24.03,-7.92 28.73,-20.82 4.57,-12.56 0.4,-30.88 -2.57,-40.87 8.09,-3.32 20.92,-10.55 28.11,-24.73 7.77,-15.36 6.82,-34.4 -2.81,-56.58 -1.16,-2.66 -3.74,-4.24 -6.46,-4.24 v 0 0"
         style="fill:#011f5b;fill-opacity:1;fill-rule:nonzero;stroke:none"
         transform="matrix(0.13333333,0,0,-0.13333333,0,748.4)" />
      <path
         id="path8"
         d="m 3188.29,4994.62 c -0.28,0 -0.56,0.01 -0.86,0.05 -3.84,0.46 -6.59,3.98 -6.12,7.83 3.29,26.93 -12.55,31.82 -26.51,36.15 -3.7,1.15 -6.91,2.13 -9.44,3.6 -7.44,4.3 -7.72,13.28 -8.03,22.77 -0.33,10.03 -0.69,21.39 -8.29,29.89 -13.06,14.61 -38.99,5.15 -39.26,5.06 -2.34,-0.87 -4.96,-0.44 -6.9,1.14 -1.95,1.58 -2.89,4.07 -2.51,6.54 0.04,0.27 4.16,28.7 -12.2,42.6 -13.92,11.8 -40.2,8.95 -49.14,6.84 -2.2,-0.5 -4.48,0.05 -6.18,1.51 -1.71,1.45 -2.62,3.63 -2.45,5.86 1.29,17.62 -5.74,32.76 -19.27,41.52 -11.46,7.43 -25.31,8.43 -36.13,2.61 -29.55,-15.92 -41.12,-16.99 -72.09,4.92 -9.66,6.85 -19.32,9.11 -28.68,6.73 -11.85,-3.01 -22.74,-13.56 -30.68,-29.71 -1.71,-3.49 -5.93,-4.92 -9.42,-3.21 -3.48,1.7 -4.92,5.92 -3.21,9.4 9.79,19.92 23.93,33.11 39.85,37.15 13.33,3.41 27.27,0.33 40.28,-8.88 26.06,-18.45 32.02,-17.63 57.3,-4.02 15.33,8.26 34.66,7.04 50.43,-3.18 15.36,-9.96 24.62,-26.58 25.72,-45.53 12.8,1.55 36.84,2.23 52.77,-11.29 15.14,-12.85 17.69,-32.97 17.68,-45.14 11.85,2.25 31.5,3.08 44.57,-11.54 11.01,-12.32 11.51,-27.63 11.87,-38.81 0.12,-3.86 0.3,-9.62 1.21,-11.16 1.26,-0.65 3.85,-1.46 6.37,-2.23 13.31,-4.13 41.02,-12.71 36.3,-51.29 -0.42,-3.57 -3.46,-6.18 -6.98,-6.18 v 0 0"
         style="fill:#011f5b;fill-opacity:1;fill-rule:nonzero;stroke:none"
         transform="matrix(0.13333333,0,0,-0.13333333,0,748.4)" />
      <path
         id="path9"
         d="m 2490.49,5068 c 0.09,-3.11 -0.73,-5.99 -2.46,-8.55 -1.78,-2.63 -4.78,-4.99 -7.96,-7.47 -6.6,-5.17 -14.84,-11.58 -14.84,-23.69 v -32.2 h -251.55 -0.14 -251.55 v 32.2 c 0,12.11 -8.22,18.52 -14.84,23.69 -3.18,2.48 -6.18,4.84 -7.96,7.47 -1.73,2.56 -2.56,5.44 -2.45,8.55 v 0.23 0.22 c -0.11,3.11 0.72,6 2.45,8.55 1.78,2.64 4.78,4.98 7.96,7.47 6.62,5.16 14.84,11.58 14.84,23.69 v 144.61 c 0,12.11 -8.22,18.54 -14.84,23.69 -3.18,2.5 -6.18,4.84 -7.96,7.48 -1.73,2.56 -2.56,5.43 -2.45,8.56 v 0.21 0.22 c -0.11,3.12 0.72,6.01 2.45,8.56 1.78,2.64 4.78,4.99 7.96,7.47 6.62,5.16 14.84,11.58 14.84,23.68 v 33.56 c 0.34,0.01 0.69,0.01 1.07,0.01 13.09,0 25.83,0.1 37.87,1.12 v -332.42 h 183.17 c 3.47,-13.1 15.4,-22.8 29.58,-22.8 14.19,0 26.11,9.7 29.59,22.8 h 183.18 v 0 332.41 c 12,-1.01 24.67,-1.11 37.71,-1.11 0.39,0 0.74,0 1.07,-0.01 v -33.56 c 0,-12.1 8.24,-18.52 14.84,-23.68 3.18,-2.48 6.18,-4.83 7.96,-7.47 1.73,-2.55 2.55,-5.44 2.46,-8.56 v -0.22 -0.21 c 0.09,-3.13 -0.73,-6 -2.46,-8.56 -1.78,-2.64 -4.78,-4.98 -7.96,-7.48 -6.6,-5.15 -14.84,-11.58 -14.84,-23.69 v -144.61 c 0,-12.11 8.24,-18.53 14.84,-23.69 3.18,-2.49 6.18,-4.83 7.96,-7.47 1.73,-2.55 2.55,-5.44 2.46,-8.55 v -0.22 -0.23 0 z m -450.97,307.87 c 8.51,3.62 16.29,8.52 23.82,13.25 16.08,10.12 31.25,19.66 54.95,19.66 19.46,0 38.57,-7.69 55.42,-14.47 11.85,-4.77 22.34,-8.95 31.96,-10.31 v -290.7 c -0.61,-0.06 -1.2,-0.12 -1.71,-0.21 -14.03,-1.27 -33.91,-7.62 -56.7,-14.89 -7.35,-2.34 -14.88,-4.75 -22.36,-7.01 -21.96,-6.66 -44.76,-6.74 -66.82,-6.81 -14.42,-0.04 -28.13,-0.09 -40.7,-2.02 v 307.09 c 7.83,1.43 15.25,3.48 22.14,6.42 v 0 z m 213.99,18.44 c 16.86,6.78 35.96,14.47 55.41,14.47 23.72,0 38.9,-9.54 54.97,-19.66 7.52,-4.73 15.31,-9.63 23.81,-13.25 6.94,-2.96 14.42,-5.02 22.29,-6.44 v -307.07 c -12.56,1.93 -26.28,1.98 -40.69,2.02 -22.07,0.07 -44.87,0.15 -66.83,6.81 -7.48,2.26 -15,4.67 -22.37,7.01 -22.78,7.27 -42.65,13.62 -56.68,14.89 -0.27,0.04 -0.59,0.07 -0.88,0.11 v 290.94 c 9.35,1.5 19.53,5.56 30.97,10.17 v 0 z m 235.63,-298.2 c -5.85,4.55 -9.15,7.37 -9.15,12.05 v 144.61 c 0,4.69 3.3,7.5 9.16,12.07 3.76,2.95 8.03,6.27 11.11,10.85 3.41,5.04 5.12,10.92 4.99,17.02 0.13,6.11 -1.58,12 -4.99,17.03 -3.08,4.58 -7.35,7.9 -11.12,10.85 -5.85,4.57 -9.15,7.38 -9.15,12.05 v 50.44 h -11.45 v 0 c -26.81,0.03 -55.56,0.31 -74.21,8.3 -7.29,3.11 -14.17,7.44 -21.46,12.03 -16.59,10.42 -35.37,22.24 -63.95,22.24 -22.72,0 -43.42,-8.33 -61.72,-15.7 -12.25,-4.93 -23.81,-9.59 -31.83,-9.59 h -1.69 v 0 h -0.14 v 0 h -1.7 c -8,0 -19.57,4.66 -31.82,9.59 -18.28,7.37 -39,15.7 -61.73,15.7 -28.56,0 -47.35,-11.82 -63.94,-22.24 -7.29,-4.59 -14.16,-8.92 -21.46,-12.03 -18.65,-7.99 -47.39,-8.27 -74.2,-8.3 v 0 h -11.46 v -50.44 c 0,-4.67 -3.31,-7.48 -9.15,-12.05 -3.77,-2.95 -8.03,-6.27 -11.12,-10.85 -3.4,-5.03 -5.12,-10.92 -4.98,-17.03 -0.14,-6.1 1.58,-11.98 4.98,-17.02 3.09,-4.58 7.35,-7.9 11.11,-10.85 5.85,-4.57 9.16,-7.38 9.16,-12.07 v -144.61 c 0,-4.68 -3.31,-7.5 -9.15,-12.05 -3.77,-2.95 -8.03,-6.29 -11.12,-10.85 -3.4,-5.05 -5.12,-10.92 -4.98,-17.03 -0.14,-6.1 1.58,-11.99 4.98,-17.03 3.09,-4.58 7.35,-7.91 11.11,-10.85 5.85,-4.56 9.16,-7.38 9.16,-12.06 v -48.42 l -0.38,-0.66 h 0.38 v -0.03 l 266.38,0.02 266.38,-0.02 v 0.03 h 0.38 l -0.38,0.66 v 48.42 c 0,4.68 3.3,7.5 9.16,12.06 3.76,2.94 8.03,6.27 11.11,10.85 3.41,5.04 5.12,10.93 4.99,17.03 0.13,6.11 -1.58,11.98 -4.99,17.03 -3.08,4.56 -7.35,7.9 -11.12,10.85 v 0 0"
         style="fill:#011f5b;fill-opacity:1;fill-rule:nonzero;stroke:none"
         transform="matrix(0.13333333,0,0,-0.13333333,0,748.4)" />
      <path
         id="path10"
         d="m 4132.95,5068 c 0.12,-3.11 -0.72,-5.99 -2.46,-8.55 -1.76,-2.63 -4.78,-4.99 -7.96,-7.47 -6.61,-5.17 -14.81,-11.58 -14.81,-23.69 v -32.2 h -251.58 -0.11 -251.57 v 32.2 c 0,12.11 -8.23,18.52 -14.83,23.69 -3.17,2.48 -6.19,4.84 -7.98,7.47 -1.71,2.56 -2.55,5.44 -2.46,8.55 l 0.01,0.23 -0.01,0.22 c -0.09,3.11 0.75,6 2.46,8.55 1.79,2.64 4.81,4.98 7.98,7.47 6.6,5.16 14.83,11.58 14.83,23.69 v 144.61 c 0,12.11 -8.23,18.54 -14.83,23.69 -3.17,2.5 -6.19,4.84 -7.98,7.48 -1.71,2.56 -2.55,5.43 -2.46,8.56 l 0.01,0.21 -0.01,0.22 c -0.09,3.12 0.75,6.01 2.46,8.56 1.79,2.64 4.81,4.99 7.98,7.47 6.6,5.16 14.83,11.58 14.83,23.68 v 33.56 c 0.35,0.01 0.69,0.01 1.07,0.01 13.09,0 25.82,0.1 37.86,1.12 v -332.42 h 183.18 c 3.46,-13.1 15.4,-22.8 29.57,-22.8 14.19,0 26.13,9.7 29.6,22.8 h 183.18 v 0 332.41 c 11.98,-1.01 24.67,-1.11 37.71,-1.11 0.38,0 0.74,0 1.09,-0.01 v -33.56 c 0,-12.1 8.2,-18.52 14.81,-23.68 3.18,-2.48 6.2,-4.83 7.96,-7.47 1.74,-2.55 2.58,-5.44 2.46,-8.56 v -0.22 -0.21 c 0.12,-3.13 -0.72,-6 -2.46,-8.56 -1.76,-2.64 -4.78,-4.98 -7.96,-7.48 -6.61,-5.15 -14.81,-11.58 -14.81,-23.69 v -144.61 c 0,-12.11 8.2,-18.53 14.81,-23.69 3.18,-2.49 6.2,-4.83 7.96,-7.47 1.74,-2.55 2.58,-5.44 2.46,-8.55 v -0.22 -0.23 0 z m -450.94,307.87 c 8.48,3.62 16.26,8.52 23.8,13.25 16.06,10.12 31.23,19.66 54.96,19.66 19.44,0 38.54,-7.69 55.41,-14.47 11.83,-4.77 22.33,-8.95 31.95,-10.31 v -290.7 c -0.6,-0.06 -1.19,-0.12 -1.71,-0.21 -14.03,-1.27 -33.89,-7.62 -56.68,-14.89 -7.36,-2.34 -14.91,-4.75 -22.38,-7.01 -21.95,-6.66 -44.75,-6.74 -66.82,-6.81 -14.41,-0.04 -28.13,-0.09 -40.7,-2.02 v 307.09 c 7.83,1.43 15.25,3.48 22.17,6.42 v 0 z m 213.96,18.44 c 16.86,6.78 35.98,14.47 55.41,14.47 23.72,0 38.9,-9.54 54.97,-19.66 7.52,-4.73 15.32,-9.63 23.83,-13.25 6.93,-2.96 14.39,-5.02 22.28,-6.44 v -307.07 c -12.56,1.93 -26.28,1.98 -40.7,2.02 -22.05,0.07 -44.87,0.15 -66.83,6.81 -7.49,2.26 -15,4.67 -22.37,7.01 -22.77,7.27 -42.64,13.62 -56.7,14.89 -0.26,0.04 -0.57,0.07 -0.86,0.11 v 290.94 c 9.36,1.5 19.54,5.56 30.97,10.17 v 0 z m 235.63,-298.2 c -5.82,4.55 -9.15,7.37 -9.15,12.05 v 144.61 c 0,4.69 3.33,7.5 9.15,12.07 3.77,2.95 8.04,6.27 11.14,10.85 3.39,5.04 5.11,10.92 4.97,17.02 0.14,6.11 -1.58,12 -4.97,17.03 -3.1,4.58 -7.37,7.9 -11.14,10.85 -5.82,4.57 -9.15,7.38 -9.15,12.05 v 50.44 h -11.44 v 0 c -26.83,0.03 -55.55,0.31 -74.21,8.3 -7.29,3.11 -14.17,7.44 -21.45,12.03 -16.6,10.42 -35.39,22.24 -63.97,22.24 -22.71,0 -43.43,-8.33 -61.7,-15.7 -12.27,-4.93 -23.85,-9.59 -31.83,-9.59 h -1.71 v 0 h -0.11 v 0 h -1.72 c -8.02,0 -19.57,4.66 -31.82,9.59 -18.3,7.37 -39.01,15.7 -61.72,15.7 -28.59,0 -47.36,-11.82 -63.95,-22.24 -7.29,-4.59 -14.16,-8.92 -21.46,-12.03 -18.66,-7.99 -47.4,-8.27 -74.21,-8.3 v 0 h -11.44 v -50.44 c 0,-4.67 -3.32,-7.48 -9.15,-12.05 -3.79,-2.95 -8.06,-6.27 -11.13,-10.85 -3.41,-5.03 -5.12,-10.92 -4.99,-17.03 -0.13,-6.1 1.58,-11.98 4.99,-17.02 3.07,-4.58 7.34,-7.9 11.13,-10.85 5.83,-4.57 9.15,-7.38 9.15,-12.07 v -144.61 c 0,-4.68 -3.32,-7.5 -9.15,-12.05 -3.79,-2.95 -8.06,-6.29 -11.13,-10.85 -3.41,-5.05 -5.12,-10.92 -4.99,-17.03 -0.13,-6.1 1.58,-11.99 4.99,-17.03 3.07,-4.58 7.34,-7.91 11.13,-10.85 5.83,-4.56 9.15,-7.38 9.15,-12.06 v -48.42 l -0.38,-0.66 h 0.38 v -0.03 l 266.36,0.02 266.38,-0.02 v 0.03 h 0.4 l -0.4,0.66 v 48.42 c 0,4.68 3.33,7.5 9.15,12.06 3.77,2.94 8.04,6.27 11.14,10.85 3.39,5.04 5.11,10.93 4.97,17.03 0.14,6.11 -1.58,11.98 -4.97,17.03 -3.1,4.56 -7.37,7.9 -11.14,10.85 v 0 0"
         style="fill:#011f5b;fill-opacity:1;fill-rule:nonzero;stroke:none"
         transform="matrix(0.13333333,0,0,-0.13333333,0,748.4)" />
      <path
         id="path11"
         d="m 4068.65,3782.39 -1033.8,997.06 -1033.79,-997.06 c -80.26,168.81 -133.64,364.68 -132.97,586.75 0.01,6.52 0.02,207.77 0.01,442.25 h 2333.5 c 0,-234.48 0,-435.73 0.01,-442.25 0.68,-222.07 -52.72,-417.94 -132.96,-586.75 v 0 z M 3738.6,3678.37 c -80.29,-80.29 -210.44,-80.29 -290.73,0 -80.27,80.27 -80.27,210.42 0,290.73 80.29,80.26 210.44,80.26 290.73,0 80.27,-80.31 80.27,-210.46 0,-290.73 v 0 z m -909.28,655.33 c 0,113.5 92.02,205.51 205.53,205.51 113.5,0 205.52,-92.01 205.52,-205.51 0,-113.51 -92.02,-205.53 -205.52,-205.53 -113.51,0 -205.53,92.02 -205.53,205.53 v 0 z M 3677.1,3261.43 c -277.56,-257.34 -565.21,-387.03 -642.25,-406.47 -77.04,19.44 -364.7,149.13 -642.26,406.47 -6.75,6.26 -13.54,12.65 -20.36,19.15 l 662.62,703.5 662.61,-703.5 c -6.81,-6.5 -13.61,-12.89 -20.36,-19.15 v 0 z m -1345.99,416.94 c -80.28,80.27 -80.28,210.42 0,290.73 80.28,80.26 210.44,80.26 290.71,0 80.28,-80.31 80.28,-210.46 0,-290.73 -80.27,-80.29 -210.43,-80.29 -290.71,0 v 0 z m 1870.5,1853.99 c 0,-76.45 -0.01,-400.8 -0.01,-687.66 H 1868.1 c 0,286.86 -0.01,611.21 -0.02,687.66 h 2333.53 v 0 z m 33.32,33.32 H 1834.77 c 0,0 0.05,-1180.72 0.01,-1196.45 -1.6,-524.23 290.14,-905.05 535.17,-1132.21 267.12,-247.69 567.95,-395.15 662.47,-415.74 l 2.43,-0.53 2.44,0.53 c 94.51,20.59 395.34,168.05 662.46,415.74 245.02,227.16 536.77,607.98 535.18,1132.21 -0.04,15.73 0,1196.45 0,1196.45 v 0 0"
         style="fill:#011f5b;fill-opacity:1;fill-rule:nonzero;stroke:none"
         transform="matrix(0.13333333,0,0,-0.13333333,0,748.4)" />
      <path
         id="path12"
         d="m 542.855,1749.91 c 99.801,-34.53 157.372,-38.37 272.504,-38.37 326.231,0 533.531,176.55 533.531,475.92 0,234.13 -130.53,548.85 -533.531,548.85 H 542.855 v -986.4 0 z m 0,-713.9 c 0,-272.498 65.25,-349.24 249.477,-349.24 V 621.492 H 1.67969 v 65.278 c 153.54331,0 249.47631,49.902 249.47631,341.58 v 1377.88 c 0,268.68 -65.234,349.26 -249.47631,349.26 v 65.26 H 803.84 c 606.44,0 852.07,-322.4 852.07,-625.61 0,-364.63 -276.36,-568.05 -775.301,-568.05 -95.953,0 -176.566,3.84 -337.754,23.03 v -614.11 0 0"
         style="fill:#011f5b;fill-opacity:1;fill-rule:nonzero;stroke:none"
         transform="matrix(0.13333333,0,0,-0.13333333,0,748.4)" />
      <path
         id="path13"
         d="m 2446.54,1515.8 c 11.55,299.37 -191.86,422.18 -364.6,422.18 -226.4,0 -360.78,-168.88 -376.15,-422.18 h 740.75 v 0 z m -740.75,-65.27 c -7.67,-610.28 356.97,-763.76 541.2,-763.76 188.11,0 284.02,65.21 479.81,284.031 V 870.98 C 2561.75,659.871 2404.38,579.301 2166.4,579.301 c -426.05,0 -733.08,295.5 -733.08,706.199 0,410.68 299.36,733.09 683.17,733.09 314.74,0 606.43,-253.32 587.26,-568.06 h -997.96 v 0 0"
         style="fill:#011f5b;fill-opacity:1;fill-rule:nonzero;stroke:none"
         transform="matrix(0.13333333,0,0,-0.13333333,0,748.4)" />
      <path
         id="path14"
         d="m 4177.47,917.07 c 0,-176.57 38.5,-230.3 230.34,-230.3 v -65.278 h -725.42 v 65.278 c 184.23,0 234.14,42.191 234.14,168.859 v 710.061 c 0,218.77 -157.38,310.88 -303.24,310.88 -134.28,0 -253.29,-84.44 -387.59,-264.83 V 947.742 C 3225.7,740.5 3252.51,686.77 3456,686.77 v -65.278 h -717.76 v 65.278 c 180.39,0 226.46,15.351 226.46,260.972 v 763.798 c 0,165.03 -42.25,199.58 -226.46,199.58 v 65.23 l 422.18,42.24 h 65.28 v -272.52 c 161.19,184.23 318.57,272.52 491.28,272.52 226.47,0 460.49,-161.21 460.49,-487.45 v -614.07 0 0"
         style="fill:#011f5b;fill-opacity:1;fill-rule:nonzero;stroke:none"
         transform="matrix(0.13333333,0,0,-0.13333333,0,748.4)" />
      <path
         id="path15"
         d="m 5839.44,917.07 c 0,-176.57 38.38,-230.3 230.27,-230.3 v -65.278 h -725.38 v 65.278 c 184.21,0 234.04,42.191 234.04,168.859 v 710.061 c 0,218.77 -157.3,310.88 -303.12,310.88 -134.4,0 -253.34,-84.44 -387.71,-264.83 V 947.742 c 0,-207.242 26.93,-260.972 230.31,-260.972 v -65.278 h -717.77 v 65.278 c 180.4,0 226.52,15.351 226.52,260.972 v 763.798 c 0,165.03 -42.23,199.58 -226.52,199.58 v 65.23 l 422.24,42.24 h 65.22 v -272.52 c 161.19,184.23 318.61,272.52 491.28,272.52 226.48,0 460.62,-161.21 460.62,-487.45 v -614.07 0 0"
         style="fill:#011f5b;fill-opacity:1;fill-rule:nonzero;stroke:none"
         transform="matrix(0.13333333,0,0,-0.13333333,0,748.4)" />
      <path
         id="path16"
         d="m 79.6914,231.211 c 0,-60.941 16.5274,-107.52 81.4136,-107.52 59.665,0 91.008,40.039 91.008,109.719 v 121.031 c 0,9.129 -1.742,16.52 -2.621,23.52 -2.164,15.687 -16.984,21.789 -37.433,23.91 v 11.359 h 102.746 v -11.359 c -20.891,-2.121 -35.27,-8.223 -37.434,-23.91 -0.879,-7 -2.605,-14.391 -2.605,-23.52 V 231.672 c 0,-93.602 -59.664,-128.492 -115.828,-128.492 -92.7622,0 -121.4888,47.082 -121.4888,125.832 v 129.75 c 0,40.519 1.7422,38.328 -37.4492,43.109 V 413.23 H 117.129 V 401.871 C 77.9492,397.09 79.6914,399.281 79.6914,358.762 v -127.551 0 0"
         style="fill:#011f5b;fill-opacity:1;fill-rule:nonzero;stroke:none"
         transform="matrix(0.13333333,0,0,-0.13333333,0,748.4)" />
      <path
         id="path17"
         d="M 561.348,108.441 C 507.918,171.57 452.48,237.75 397.715,302.262 v -148.5 c 0,-7.02 1.348,-12.723 2.004,-18.102 1.699,-12.121 13.125,-16.851 35.289,-18.461 v -8.758 h -82.313 v 8.758 c 16.137,1.61 27.223,6.34 28.879,18.461 0.68,5.379 2.028,11.082 2.028,18.102 v 158.297 c -9.418,12.043 -19.809,22.8 -38.973,22.8 v 8.743 h 61.137 C 455.84,282.801 507.918,220.969 557.957,160.18 h 0.66 v 138.058 c 0,7.071 -1.32,12.762 -1.992,18.141 -1.68,12.141 -13.109,16.793 -35.273,18.48 v 8.743 h 82.3 v -8.743 c -15.793,-1.687 -27.203,-6.339 -28.867,-18.48 -0.695,-5.379 -2.027,-11.07 -2.027,-18.141 V 108.441 h -11.41 v 0 0"
         style="fill:#011f5b;fill-opacity:1;fill-rule:nonzero;stroke:none"
         transform="matrix(0.13333333,0,0,-0.13333333,0,748.4)" />
      <path
         id="path18"
         d="m 733.695,150.441 c 0,-31.23 -1.367,-29.55 28.864,-33.242 v -8.758 h -90.364 v 8.758 c 30.231,3.692 28.899,2.012 28.899,33.242 v 151.18 c 0,31.231 1.332,29.539 -28.899,33.238 v 8.743 h 90.364 v -8.743 c -30.231,-3.699 -28.864,-2.007 -28.864,-33.238 v -151.18 0 0"
         style="fill:#011f5b;fill-opacity:1;fill-rule:nonzero;stroke:none"
         transform="matrix(0.13333333,0,0,-0.13333333,0,748.4)" />
      <path
         id="path19"
         d="m 905.707,334.859 c -18.488,0 -31.937,-5.379 -20.844,-37.609 13.11,-39.668 32.586,-97.41 50.071,-148.5 21.476,51.422 41.988,103.141 62.832,154.551 8.384,21.121 -0.325,31.558 -23.196,31.558 v 8.743 h 72.58 v -8.743 c -9.76,0 -20.85,-3.367 -27.91,-20.16 -28.205,-68.84 -56.756,-137.418 -84.994,-206.258 h -17.129 c -20.484,58.079 -43.347,122.961 -63.816,180.071 -12.449,35.91 -22.871,46.347 -38.961,46.347 v 8.743 h 91.367 v -8.743 0 0"
         style="fill:#011f5b;fill-opacity:1;fill-rule:nonzero;stroke:none"
         transform="matrix(0.13333333,0,0,-0.13333333,0,748.4)" />
      <path
         id="path20"
         d="m 1098.89,117.199 c 30.22,3.692 28.86,2.012 28.86,33.242 v 151.18 c 0,31.231 1.36,29.539 -28.86,33.238 v 8.743 h 150.18 v -54.114 h -8.73 c -3.39,24.891 -10.1,43.364 -34.3,43.364 h -45.69 v -96.063 h 28.24 c 21.17,0 30.24,8.352 30.91,29.231 h 8.72 v -71.559 h -8.72 c -0.67,19.75 -8.4,31.559 -30.91,31.559 h -28.24 v -75.969 c 0,-28.52 13.11,-30.84 43.34,-30.84 48.72,0 46.36,13.73 61.83,49.711 h 8.72 l -10.08,-60.481 h -165.27 v 8.758 0 0"
         style="fill:#011f5b;fill-opacity:1;fill-rule:nonzero;stroke:none"
         transform="matrix(0.13333333,0,0,-0.13333333,0,748.4)" />
      <path
         id="path21"
         d="m 1387.11,223.289 h 27.93 c 29.24,0 42.67,22.18 42.67,60.152 0,36.629 -20.18,49.411 -44.7,49.411 h -25.9 v -109.563 0 z m -61.45,120.313 h 97.76 c 33.94,0 67.89,-17.813 67.89,-57.102 0,-34.609 -21.19,-58.469 -47.03,-68.578 l 32.92,-50.031 c 16.79,-24.512 35.61,-48.039 47.32,-55.11 v -4.34 h -34.58 c -19.82,0 -30.58,36.618 -71.21,104.18 h -31.62 v -62.18 c 0,-31.23 -1.32,-29.55 28.92,-33.242 v -8.758 h -90.37 v 8.758 c 30.23,3.692 28.87,2.012 28.87,33.242 v 151.18 c 0,31.231 1.36,29.539 -28.87,33.238 v 8.743 0 0"
         style="fill:#011f5b;fill-opacity:1;fill-rule:nonzero;stroke:none"
         transform="matrix(0.13333333,0,0,-0.13333333,0,748.4)" />
      <path
         id="path22"
         d="m 1690.88,293.563 c -2.71,23.468 -15.49,42.328 -42.34,42.328 -19.51,0 -36.97,-10.102 -36.97,-34.942 0,-23.519 23.53,-37.66 57.15,-62.867 35.57,-26.512 47,-43.621 47,-71.562 0,-39.93 -40.99,-62.098 -81.31,-62.098 -21.47,0 -39.96,4.019 -57.42,10.707 -1.36,0.711 -2.38,2.07 -2.38,4.723 v 48.367 h 8.75 c 3.69,-37.289 28.21,-52.071 54.09,-52.071 23.88,0 43.31,18.141 43.31,42.661 0,21.851 -11.74,39.66 -62.16,72.921 -18.11,12.122 -40.62,25.219 -40.62,61.833 0,30.207 33.59,54.058 72.22,54.058 14.44,0 33.62,-1.68 47.03,-6.34 2.02,-0.722 2.32,-2.011 2.32,-3.691 v -44.027 h -8.67 v 0 0"
         style="fill:#011f5b;fill-opacity:1;fill-rule:nonzero;stroke:none"
         transform="matrix(0.13333333,0,0,-0.13333333,0,748.4)" />
      <path
         id="path23"
         d="m 1837.71,150.441 c 0,-31.23 -1.4,-29.55 28.85,-33.242 v -8.758 h -90.37 v 8.758 c 30.27,3.692 28.9,2.012 28.9,33.242 v 151.18 c 0,31.231 1.37,29.539 -28.9,33.238 v 8.743 h 90.37 v -8.743 c -30.25,-3.699 -28.85,-2.007 -28.85,-33.238 v -151.18 0 0"
         style="fill:#011f5b;fill-opacity:1;fill-rule:nonzero;stroke:none"
         transform="matrix(0.13333333,0,0,-0.13333333,0,748.4)" />
      <path
         id="path24"
         d="m 2032.56,150.441 c 0,-31.23 -1.37,-29.55 28.91,-33.242 v -8.758 h -90.44 v 8.758 c 30.26,3.692 28.9,2.012 28.9,33.242 v 182.411 h -30.2 c -29.23,0 -35.98,-18.473 -47.06,-40.653 h -8.43 l 9.09,51.403 h 185.83 l 9.09,-51.403 h -8.43 c -11.08,22.18 -17.81,40.653 -47.06,40.653 h -30.2 v -182.411 0 0"
         style="fill:#011f5b;fill-opacity:1;fill-rule:nonzero;stroke:none"
         transform="matrix(0.13333333,0,0,-0.13333333,0,748.4)" />
      <path
         id="path25"
         d="m 2215.99,117.199 c 30.2,3.692 28.9,2.012 28.9,33.242 v 51.739 l -51.8,102.461 c -11.07,21.859 -20.47,30.218 -35.91,30.218 v 8.743 h 85.65 v -8.743 c -25.49,0 -23.15,-12.769 -14.8,-30.218 l 40.73,-84.313 46.32,84.313 c 11.43,20.5 0.68,30.218 -19.18,30.218 v 8.743 h 69.24 v -8.743 c -9.39,0 -18.5,-4.347 -27.55,-20.48 l -56.07,-101.758 c -3.37,-6.762 -4.07,-16.152 -4.07,-24.582 v -37.598 c 0,-31.23 -1.31,-29.55 28.9,-33.242 v -8.758 h -90.36 v 8.758 0 0"
         style="fill:#011f5b;fill-opacity:1;fill-rule:nonzero;stroke:none"
         transform="matrix(0.13333333,0,0,-0.13333333,0,748.4)" />
      <path
         id="path26"
         d="m 2670.51,273.859 c 0,45.321 -27.43,47.063 -34.36,47.063 -47.06,0 -78,-84.461 -78,-141.109 0,-22.633 3.99,-63.524 36.18,-63.524 49.65,0 76.18,81.863 76.18,157.57 v 0 z m -152.42,-84.91 c 0,57.043 49.21,142.41 121.93,142.41 57.96,0 70.53,-39.23 70.53,-78.367 0,-47.91 -38.3,-149.812 -121.46,-149.812 -55.77,0 -71,44.859 -71,85.769 v 0 0"
         style="fill:#011f5b;fill-opacity:1;fill-rule:nonzero;stroke:none"
         transform="matrix(0.13333333,0,0,-0.13333333,0,748.4)" />
      <path
         id="path27"
         d="m 2929.59,316.969 -10.46,-9.141 h -57 C 2840.78,204.25 2805.9,66.1914 2781.14,0 h -19.66 l 62.3,307.828 h -41.35 l 3.88,18.274 h 41 c 23.08,92.75 99.69,102.359 117.98,102.359 9.95,0 30.89,-1.77 37.43,-7.832 l -5.24,-28.727 -10.88,-5.242 c -6.07,11.719 -20.02,25.27 -38.31,25.27 -26.12,0 -45.69,-17.891 -56.21,-64.891 l -4.71,-20.937 h 63.98 l -1.76,-9.133 v 0 0"
         style="fill:#011f5b;fill-opacity:1;fill-rule:nonzero;stroke:none"
         transform="matrix(0.13333333,0,0,-0.13333333,0,748.4)" />
      <path
         id="path28"
         d="m 3195.22,162.828 c 0,-40.449 -1.74,-38.308 37.4,-43.098 v -11.289 h -117.14 v 11.289 c 39.23,4.79 37.47,2.649 37.47,43.098 v 195.934 c 0,40.519 1.76,38.328 -37.47,43.109 v 11.359 h 114.09 c 72.29,0 108,-28.718 108,-81.019 0,-62.691 -56.59,-96.652 -123.23,-92.699 v 8.679 c 54.46,-0.832 79.66,31.77 79.66,79.668 0,48.801 -23.47,71.422 -72.26,71.422 h -26.52 v -236.453 0 0"
         style="fill:#011f5b;fill-opacity:1;fill-rule:nonzero;stroke:none"
         transform="matrix(0.13333333,0,0,-0.13333333,0,748.4)" />
      <path
         id="path29"
         d="m 3397.57,117.199 c 30.31,3.692 28.95,2.012 28.95,33.242 v 151.18 c 0,31.231 1.36,29.539 -28.95,33.238 v 8.743 h 150.21 v -54.114 h -8.75 c -3.36,24.891 -10.06,43.364 -34.23,43.364 h -45.7 v -96.063 h 28.21 c 21.18,0 30.26,8.352 30.89,29.231 h 8.78 v -71.559 h -8.78 c -0.63,19.75 -8.43,31.559 -30.89,31.559 h -28.21 v -75.969 c 0,-28.52 13.11,-30.84 43.33,-30.84 48.71,0 46.38,13.73 61.81,49.711 h 8.77 l -10.14,-60.481 h -165.3 v 8.758 0 0"
         style="fill:#011f5b;fill-opacity:1;fill-rule:nonzero;stroke:none"
         transform="matrix(0.13333333,0,0,-0.13333333,0,748.4)" />
      <path
         id="path30"
         d="m 3839.74,108.441 c -53.43,63.129 -108.87,129.309 -163.61,193.821 v -148.5 c 0,-7.02 1.35,-12.723 2.02,-18.102 1.65,-12.121 13.07,-16.851 35.23,-18.461 v -8.758 h -82.22 v 8.758 c 16.05,1.61 27.13,6.34 28.84,18.461 0.7,5.379 1.98,11.082 1.98,18.102 v 158.297 c -9.39,12.043 -19.75,22.8 -38.96,22.8 v 8.743 h 61.13 c 50.11,-60.801 102.16,-122.633 152.2,-183.422 h 0.73 v 138.058 c 0,7.071 -1.35,12.762 -2.02,18.141 -1.69,12.141 -13.08,16.793 -35.31,18.48 v 8.743 h 82.29 v -8.743 c -15.73,-1.687 -27.2,-6.339 -28.83,-18.48 -0.74,-5.379 -2.1,-11.07 -2.1,-18.141 V 108.441 h -11.37 v 0 0"
         style="fill:#011f5b;fill-opacity:1;fill-rule:nonzero;stroke:none"
         transform="matrix(0.13333333,0,0,-0.13333333,0,748.4)" />
      <path
         id="path31"
         d="m 4140.75,108.441 c -53.4,63.129 -108.82,129.309 -163.62,193.821 v -148.5 c 0,-7.02 1.37,-12.723 2.02,-18.102 1.7,-12.121 13.1,-16.851 35.26,-18.461 v -8.758 h -82.25 v 8.758 c 16.08,1.61 27.15,6.34 28.83,18.461 0.74,5.379 2.03,11.082 2.03,18.102 v 158.297 c -9.42,12.043 -19.76,22.8 -38.96,22.8 v 8.743 h 61.14 c 50.09,-60.801 102.15,-122.633 152.18,-183.422 h 0.72 v 138.058 c 0,7.071 -1.37,12.762 -2.03,18.141 -1.66,12.141 -13.08,16.793 -35.31,18.48 v 8.743 h 82.31 v -8.743 c -15.73,-1.687 -27.23,-6.339 -28.86,-18.48 -0.68,-5.379 -2.05,-11.07 -2.05,-18.141 V 108.441 h -11.41 v 0 0"
         style="fill:#011f5b;fill-opacity:1;fill-rule:nonzero;stroke:none"
         transform="matrix(0.13333333,0,0,-0.13333333,0,748.4)" />
      <path
         id="path32"
         d="m 4359.46,293.563 c -2.67,23.468 -15.43,42.328 -42.35,42.328 -19.41,0 -36.95,-10.102 -36.95,-34.942 0,-23.519 23.53,-37.66 57.12,-62.867 35.66,-26.512 47.06,-43.621 47.06,-71.562 0,-39.93 -40.94,-62.098 -81.28,-62.098 -21.53,0 -39.97,4.019 -57.51,10.707 -1.3,0.711 -2.32,2.07 -2.32,4.723 v 48.367 h 8.76 c 3.69,-37.289 28.17,-52.071 54.07,-52.071 23.82,0 43.34,18.141 43.34,42.661 0,21.851 -11.73,39.66 -62.16,72.921 -18.15,12.122 -40.65,25.219 -40.65,61.833 0,30.207 33.57,54.058 72.2,54.058 14.48,0 33.67,-1.68 47.06,-6.34 2.02,-0.722 2.37,-2.011 2.37,-3.691 v -44.027 h -8.76 v 0 0"
         style="fill:#011f5b;fill-opacity:1;fill-rule:nonzero;stroke:none"
         transform="matrix(0.13333333,0,0,-0.13333333,0,748.4)" />
      <path
         id="path33"
         d="m 4494.86,117.199 c 30.28,3.692 28.91,2.012 28.91,33.242 v 51.739 l -51.74,102.461 c -11.09,21.859 -20.47,30.218 -35.97,30.218 v 8.743 h 85.72 v -8.743 c -25.56,0 -23.23,-12.769 -14.8,-30.218 l 40.65,-84.313 46.34,84.313 c 11.4,20.5 0.71,30.218 -19.12,30.218 v 8.743 h 69.24 v -8.743 c -9.48,0 -18.58,-4.347 -27.55,-20.48 L 4560.4,212.621 c -3.38,-6.762 -4.05,-16.152 -4.05,-24.582 v -37.598 c 0,-31.23 -1.36,-29.55 28.89,-33.242 v -8.758 h -90.38 v 8.758 0 0"
         style="fill:#011f5b;fill-opacity:1;fill-rule:nonzero;stroke:none"
         transform="matrix(0.13333333,0,0,-0.13333333,0,748.4)" />
      <path
         id="path34"
         d="m 4699.1,117.199 c 30.28,3.692 28.91,2.012 28.91,33.242 v 151.18 c 0,31.231 1.37,29.539 -28.91,33.238 v 8.743 h 90.44 v -8.743 c -30.26,-3.699 -28.91,-2.007 -28.91,-33.238 V 145.059 c 0,-23.528 13.07,-25.848 42.98,-25.848 48.73,0 46.74,13.73 62.16,49.711 h 8.43 l -10.11,-60.481 H 4699.1 v 8.758 0 0"
         style="fill:#011f5b;fill-opacity:1;fill-rule:nonzero;stroke:none"
         transform="matrix(0.13333333,0,0,-0.13333333,0,748.4)" />
      <path
         id="path35"
         d="m 4991.46,334.859 c -18.5,0 -31.96,-5.379 -20.88,-37.609 13.13,-39.668 32.59,-97.41 50.11,-148.5 21.43,51.422 41.98,103.141 62.79,154.551 8.44,21.121 -0.29,31.558 -23.19,31.558 v 8.743 h 72.62 v -8.743 c -9.74,0 -20.89,-3.367 -27.89,-20.16 -28.29,-68.84 -56.79,-137.418 -85.06,-206.258 h -17.1 c -20.49,58.079 -43.36,122.961 -63.84,180.071 -12.45,35.91 -22.84,46.347 -38.96,46.347 v 8.743 h 91.4 v -8.743 0 0"
         style="fill:#011f5b;fill-opacity:1;fill-rule:nonzero;stroke:none"
         transform="matrix(0.13333333,0,0,-0.13333333,0,748.4)" />
      <path
         id="path36"
         d="m 5269.95,199.121 -35.64,109.219 h -0.62 L 5193.7,199.121 h 76.25 v 0 z m -81.33,-12.762 -15.43,-44.988 c -4.38,-13.082 2.03,-24.172 16.79,-24.172 v -8.758 h -61.13 v 8.758 c 9.1,0 18.82,5.699 24.2,16.781 14.47,29.559 53.73,139.43 81.6,213.641 h 18.86 c 22.82,-67.531 57.12,-170.973 68.52,-200.879 7.37,-18.863 12.78,-29.543 27.22,-29.543 v -8.758 h -78.31 v 8.758 c 21.19,0 23.22,11.09 17.83,25.852 l -14.47,43.308 h -85.68 v 0 0"
         style="fill:#011f5b;fill-opacity:1;fill-rule:nonzero;stroke:none"
         transform="matrix(0.13333333,0,0,-0.13333333,0,748.4)" />
      <path
         id="path37"
         d="m 5607.94,108.441 c -53.4,63.129 -108.88,129.309 -163.61,193.821 v -148.5 c 0,-7.02 1.29,-12.723 2.02,-18.102 1.7,-12.121 13.08,-16.851 35.24,-18.461 v -8.758 h -82.3 v 8.758 c 16.14,1.61 27.22,6.34 28.92,18.461 0.66,5.379 2.02,11.082 2.02,18.102 v 158.297 c -9.44,12.043 -19.86,22.8 -38.98,22.8 v 8.743 h 61.15 c 50.02,-60.801 102.14,-122.633 152.15,-183.422 h 0.67 v 138.058 c 0,7.071 -1.29,12.762 -2.03,18.141 -1.65,12.141 -13.08,16.793 -35.24,18.48 v 8.743 h 82.32 v -8.743 c -15.79,-1.687 -27.23,-6.339 -28.9,-18.48 -0.63,-5.379 -2,-11.07 -2,-18.141 V 108.441 h -11.43 v 0 0"
         style="fill:#011f5b;fill-opacity:1;fill-rule:nonzero;stroke:none"
         transform="matrix(0.13333333,0,0,-0.13333333,0,748.4)" />
      <path
         id="path38"
         d="m 5766.81,150.441 c 0,-31.23 -1.29,-29.55 28.91,-33.242 v -8.758 h -90.34 v 8.758 c 30.21,3.692 28.92,2.012 28.92,33.242 v 151.18 c 0,31.231 1.29,29.539 -28.92,33.238 v 8.743 h 90.34 v -8.743 c -30.2,-3.699 -28.91,-2.007 -28.91,-33.238 v -151.18 0 0"
         style="fill:#011f5b;fill-opacity:1;fill-rule:nonzero;stroke:none"
         transform="matrix(0.13333333,0,0,-0.13333333,0,748.4)" />
      <path
         id="path39"
         d="m 5988.58,199.121 -35.57,109.219 h -0.73 l -39.92,-109.219 h 76.22 v 0 z m -81.29,-12.762 -15.49,-44.988 c -4.34,-13.082 1.99,-24.172 16.83,-24.172 v -8.758 h -61.16 v 8.758 c 9.06,0 18.77,5.699 24.15,16.781 14.48,29.559 53.81,139.43 81.67,213.641 h 18.82 c 22.87,-67.531 57.09,-170.973 68.59,-200.879 7.39,-18.863 12.69,-29.543 27.14,-29.543 v -8.758 h -78.23 v 8.758 c 21.14,0 23.13,11.09 17.75,25.852 l -14.37,43.308 h -85.7 v 0 0"
         style="fill:#011f5b;fill-opacity:1;fill-rule:nonzero;stroke:none"
         transform="matrix(0.13333333,0,0,-0.13333333,0,748.4)" />
    </g>
  </g>
</svg>
